<?xml version="1.0" encoding="iso-8859-1"?>
<!-- Generator: Adobe Illustrator 19.0.0, SVG Export Plug-In . SVG Version: 6.00 Build 0)  -->
<svg version="1.1" id="Capa_1" xmlns="http://www.w3.org/2000/svg" xmlns:xlink="http://www.w3.org/1999/xlink" x="0px" y="0px"
	 viewBox="0 0 480 480" style="enable-background:new 0 0 480 480;" xml:space="preserve">
<path style="fill:#CCCCCC;" d="M456,448V128c0-13.255-10.745-24-24-24H48c-13.255,0-24,10.745-24,24v320H456z"/>
<path style="fill:#29ABE2;" d="M176,136H56v240h368V136H304H176z"/>
<path style="fill:#999999;" d="M472,424v24c0,13.255-10.745,24-24,24l0,0H32c-13.255,0-24-10.745-24-24l0,0v-24h160l16,16h112l16-16
	H472z"/>
<path style="fill:#F15A24;" d="M208,184h64v32h-64V184z"/>
<path style="fill:#FCBF29;" d="M208,184v-22.704c-40.494-17.673-58.994-64.827-41.321-105.321S231.506-3.02,272,14.654
	s58.994,64.827,41.321,105.321c-8.07,18.492-22.83,33.251-41.321,41.321V184H208z"/>
<path style="opacity:0.5;fill:#F28D01;enable-background:new    ;" d="M288,81.344C287.994,49.505,269.108,20.701,239.912,8H240
	c44.183,0.032,79.974,35.875,79.942,80.058c-0.023,31.766-18.838,60.509-47.942,73.238V184h-64v-22.656
	C252.183,161.344,288,125.527,288,81.344z"/>
<path d="M232,400h16v16h-16V400z"/>
<path d="M472,416h-8V128c0-17.673-14.327-32-32-32H327.44c0.24-2.656,0.56-5.296,0.56-8c0-48.601-39.399-88-88-88s-88,39.399-88,88
	c0,2.704,0.32,5.344,0.56,8H48c-17.673,0-32,14.327-32,32v288H8c-4.418,0-8,3.582-8,8v24c0,17.673,14.327,32,32,32h416
	c17.673,0,32-14.327,32-32v-24C480,419.582,476.418,416,472,416z M240,16c39.764,0.027,71.978,32.284,71.952,72.048
	c-0.019,28.592-16.955,54.464-43.152,65.92c-2.914,1.272-4.798,4.149-4.8,7.328V176h-16v-60.688l29.656-29.656l-11.312-11.312
	L240,100.688l-26.344-26.344l-11.312,11.312L232,115.312V176h-16v-14.704c-0.002-3.179-1.886-6.056-4.8-7.328
	c-36.433-15.932-53.052-58.383-37.12-94.816C185.536,32.955,211.408,16.019,240,16z M352,224v-80h64v144H304v16h40v32
	c0,4.418,3.582,8,8,8h40v-16h-32v-24h56v64H176v-24h24v-16h-96v-40H88v48c0,4.418,3.582,8,8,8h64v24H64V264h64v32
	c0,4.418,3.582,8,8,8h88v32c0,4.418,3.582,8,8,8h88v-16h-40v-64h104c4.418,0,8-3.582,8-8v-88h-16v80h-64v-40h-16v40H168v16h96v64
	h-24v-32c0-4.418-3.582-8-8-8h-88v-64h32v-16h-40c-4.418,0-8,3.582-8,8v32H64V144h24v80h16v-40h56v-16h-56v-24h68.168
	c7.649,9.29,17.121,16.914,27.832,22.4v9.6h-16v16h16v24c0,4.418,3.582,8,8,8h64c4.418,0,8-3.582,8-8v-24h16v-16h-16v-9.6
	c10.711-5.486,20.183-13.11,27.832-22.4H336v80H352z M264,192v16h-48v-16H264z M32,128c0-8.837,7.163-16,16-16h107.344
	c1.636,5.535,3.814,10.894,6.504,16H56c-4.418,0-8,3.582-8,8v240c0,4.418,3.582,8,8,8h368c4.418,0,8-3.582,8-8V136
	c0-4.418-3.582-8-8-8H318.152c2.69-5.106,4.868-10.465,6.504-16H432c8.837,0,16,7.163,16,16v288H312
	c-2.122,0-4.156,0.844-5.656,2.344L292.688,432H187.312l-13.656-13.656c-1.5-1.5-3.534-2.344-5.656-2.344H32L32,128z M464,448
	c0,8.837-7.163,16-16,16H32c-8.837,0-16-7.163-16-16v-16h148.688l13.656,13.656c1.5,1.5,3.534,2.344,5.656,2.344h112
	c2.122,0,4.156-0.844,5.656-2.344L315.312,432H464V448z"/>
<g>
</g>
<g>
</g>
<g>
</g>
<g>
</g>
<g>
</g>
<g>
</g>
<g>
</g>
<g>
</g>
<g>
</g>
<g>
</g>
<g>
</g>
<g>
</g>
<g>
</g>
<g>
</g>
<g>
</g>
</svg>
